# 3ds Max Wavefront OBJ Exporter v0.97b - (c)2007 guruware
# 创建的文件:02.06.2017 01:26:24

mtllib 2.mtl

#
# object Box002
#

v  -72.916 0.000 111.901
v  -42.315 0.000 74.386
v  -1.783 0.000 107.448
v  -32.385 0.000 144.963
v  -72.916 107.493 111.901
v  -32.385 107.493 144.963
v  -1.783 107.493 107.448
v  -42.315 107.493 74.386
# 8 vertices

vn 0.000 -1.000 -0.000
vn 0.000 1.000 -0.000
vn -0.632 0.000 0.775
vn 0.775 0.000 0.632
vn 0.632 0.000 -0.775
vn -0.775 0.000 -0.632
# 6 vertex normals

g Box002
usemtl wire_008008136
s 2
f 1//1 2//1 3//1 
f 3//1 4//1 1//1 
s 4
f 5//2 6//2 7//2 
f 7//2 8//2 5//2 
s 8
f 1//3 4//3 6//3 
f 6//3 5//3 1//3 
s 16
f 4//4 3//4 7//4 
f 7//4 6//4 4//4 
s 32
f 3//5 2//5 8//5 
f 8//5 7//5 3//5 
s 64
f 2//6 1//6 5//6 
f 5//6 8//6 2//6 
# 12 faces

