# 3ds Max Wavefront OBJ Exporter v0.97b - (c)2007 guruware
# 创建的文件:02.06.2017 01:26:36

mtllib 3.mtl

#
# object Box001
#

v  -65.446 0.000 -84.503
v  -34.163 0.000 -117.883
v  -7.549 0.000 -92.940
v  -38.832 0.000 -59.560
v  -65.446 107.463 -84.503
v  -38.832 107.463 -59.560
v  -7.549 107.463 -92.940
v  -34.163 107.463 -117.883
# 8 vertices

vn 0.000 -1.000 -0.000
vn 0.000 1.000 -0.000
vn -0.684 0.000 0.730
vn 0.730 0.000 0.684
vn 0.684 0.000 -0.730
vn -0.730 0.000 -0.684
# 6 vertex normals

g Box001
usemtl wire_027177027
s 2
f 1//1 2//1 3//1 
f 3//1 4//1 1//1 
s 4
f 5//2 6//2 7//2 
f 7//2 8//2 5//2 
s 8
f 1//3 4//3 6//3 
f 6//3 5//3 1//3 
s 16
f 4//4 3//4 7//4 
f 7//4 6//4 4//4 
s 32
f 3//5 2//5 8//5 
f 8//5 7//5 3//5 
s 64
f 2//6 1//6 5//6 
f 5//6 8//6 2//6 
# 12 faces

