# 3ds Max Wavefront OBJ Exporter v0.97b - (c)2007 guruware
# 创建的文件:15.05.2017 04:20:49

mtllib 3.mtl

#
# object Cylinder001
#

v  -1106.586 15.506 2326.151
v  -598.740 16.330 2141.312
v  -566.148 15.506 2326.151
v  -692.586 17.055 1978.768
v  -836.367 17.593 1858.122
v  -1012.740 17.879 1793.929
v  -1200.432 17.879 1793.929
v  -1376.806 17.593 1858.122
v  -1520.586 17.055 1978.768
v  -1614.432 16.330 2141.312
v  -1647.025 15.506 2326.151
v  -1614.432 14.682 2510.990
v  -1520.586 13.957 2673.535
v  -1376.806 13.419 2794.180
v  -1200.433 13.132 2858.374
v  -1012.740 13.132 2858.374
v  -836.367 13.419 2794.180
v  -692.586 13.957 2673.535
v  -598.740 14.682 2510.991
v  -598.740 314.749 2142.643
v  -566.148 313.925 2327.482
v  -692.586 315.474 1980.098
v  -836.367 316.012 1859.453
v  -1012.740 316.298 1795.259
v  -1200.432 316.298 1795.259
v  -1376.806 316.012 1859.453
v  -1520.586 315.474 1980.098
v  -1614.432 314.749 2142.643
v  -1647.025 313.925 2327.482
v  -1614.432 313.100 2512.321
v  -1520.586 312.375 2674.866
v  -1376.806 311.837 2795.511
v  -1200.433 311.551 2859.705
v  -1012.740 311.551 2859.705
v  -836.367 311.837 2795.511
v  -692.586 312.375 2674.866
v  -598.740 313.100 2512.322
v  -598.740 613.168 2143.974
v  -566.148 612.343 2328.813
v  -692.586 613.893 1981.429
v  -836.367 614.431 1860.784
v  -1012.740 614.717 1796.590
v  -1200.432 614.717 1796.590
v  -1376.806 614.431 1860.784
v  -1520.586 613.893 1981.429
v  -1614.432 613.168 2143.974
v  -1647.025 612.343 2328.813
v  -1614.432 611.519 2513.652
v  -1520.586 610.794 2676.197
v  -1376.806 610.256 2796.842
v  -1200.433 609.970 2861.036
v  -1012.740 609.970 2861.036
v  -836.367 610.256 2796.842
v  -692.586 610.794 2676.197
v  -598.740 611.519 2513.652
v  -598.740 911.586 2145.305
v  -566.148 910.762 2330.144
v  -692.586 912.311 1982.760
v  -836.367 912.849 1862.115
v  -1012.740 913.135 1797.921
v  -1200.432 913.135 1797.921
v  -1376.806 912.849 1862.115
v  -1520.586 912.311 1982.760
v  -1614.432 911.586 2145.305
v  -1647.025 910.762 2330.144
v  -1614.432 909.938 2514.983
v  -1520.586 909.213 2677.527
v  -1376.806 908.675 2798.173
v  -1200.433 908.389 2862.367
v  -1012.740 908.389 2862.367
v  -836.367 908.675 2798.173
v  -692.586 909.213 2677.528
v  -598.740 909.938 2514.983
v  -598.740 1210.005 2146.635
v  -566.148 1209.181 2331.475
v  -692.586 1210.730 1984.091
v  -836.367 1211.268 1863.446
v  -1012.740 1211.554 1799.252
v  -1200.432 1211.554 1799.252
v  -1376.806 1211.268 1863.446
v  -1520.586 1210.730 1984.091
v  -1614.432 1210.005 2146.635
v  -1647.025 1209.181 2331.474
v  -1614.432 1208.357 2516.313
v  -1520.586 1207.632 2678.858
v  -1376.806 1207.094 2799.503
v  -1200.433 1206.807 2863.697
v  -1012.740 1206.807 2863.697
v  -836.367 1207.094 2799.504
v  -692.586 1207.632 2678.859
v  -598.740 1208.357 2516.314
v  -598.740 1508.424 2147.966
v  -566.148 1507.599 2332.805
v  -692.586 1509.149 1985.422
v  -836.367 1509.687 1864.776
v  -1012.740 1509.973 1800.583
v  -1200.432 1509.973 1800.583
v  -1376.806 1509.687 1864.776
v  -1520.586 1509.149 1985.422
v  -1614.432 1508.424 2147.966
v  -1647.025 1507.599 2332.805
v  -1614.432 1506.775 2517.644
v  -1520.586 1506.050 2680.189
v  -1376.806 1505.512 2800.834
v  -1200.433 1505.226 2865.028
v  -1012.740 1505.226 2865.028
v  -836.367 1505.512 2800.834
v  -692.586 1506.050 2680.189
v  -598.740 1506.775 2517.645
v  -1106.586 1507.599 2332.805
# 110 vertices

vn 0.000 -1.000 -0.004
vn 1.000 -0.000 0.000
vn 0.940 0.002 -0.342
vn 0.766 0.003 -0.643
vn 0.500 0.004 -0.866
vn 0.174 0.004 -0.985
vn -0.174 0.004 -0.985
vn -0.500 0.004 -0.866
vn -0.766 0.003 -0.643
vn -0.940 0.002 -0.342
vn -1.000 -0.000 -0.000
vn -0.940 -0.002 0.342
vn -0.766 -0.003 0.643
vn -0.500 -0.004 0.866
vn -0.174 -0.004 0.985
vn 0.174 -0.004 0.985
vn 0.500 -0.004 0.866
vn 0.766 -0.003 0.643
vn 0.940 -0.002 0.342
vn 1.000 0.000 0.000
vn -1.000 0.000 -0.000
vn 0.000 1.000 0.004
# 22 vertex normals

g Cylinder001
usemtl wire_135006006
s 1
f 1//1 2//1 3//1 
f 1//1 4//1 2//1 
f 1//1 5//1 4//1 
f 1//1 6//1 5//1 
f 1//1 7//1 6//1 
f 1//1 8//1 7//1 
f 1//1 9//1 8//1 
f 1//1 10//1 9//1 
f 1//1 11//1 10//1 
f 1//1 12//1 11//1 
f 1//1 13//1 12//1 
f 1//1 14//1 13//1 
f 1//1 15//1 14//1 
f 1//1 16//1 15//1 
f 1//1 17//1 16//1 
f 1//1 18//1 17//1 
f 1//1 19//1 18//1 
f 1//1 3//1 19//1 
s 8
f 3//2 20//3 21//2 
f 3//2 2//3 20//3 
f 2//3 22//4 20//3 
f 2//3 4//4 22//4 
f 4//4 23//5 22//4 
f 4//4 5//5 23//5 
f 5//5 24//6 23//5 
f 5//5 6//6 24//6 
f 6//6 25//7 24//6 
f 6//6 7//7 25//7 
f 7//7 26//8 25//7 
f 7//7 8//8 26//8 
f 8//8 27//9 26//8 
f 8//8 9//9 27//9 
f 9//9 28//10 27//9 
f 9//9 10//10 28//10 
f 10//10 29//11 28//10 
f 10//10 11//11 29//11 
f 11//11 30//12 29//11 
f 11//11 12//12 30//12 
f 12//12 31//13 30//12 
f 12//12 13//13 31//13 
f 13//13 32//14 31//13 
f 13//13 14//14 32//14 
f 14//14 33//15 32//14 
f 14//14 15//15 33//15 
f 15//15 34//16 33//15 
f 15//15 16//16 34//16 
f 16//16 35//17 34//16 
f 16//16 17//17 35//17 
f 17//17 36//18 35//17 
f 17//17 18//18 36//18 
f 18//18 37//19 36//18 
f 18//18 19//19 37//19 
f 19//19 21//2 37//19 
f 19//19 3//2 21//2 
f 21//2 38//3 39//20 
f 21//2 20//3 38//3 
f 20//3 40//4 38//3 
f 20//3 22//4 40//4 
f 22//4 41//5 40//4 
f 22//4 23//5 41//5 
f 23//5 42//6 41//5 
f 23//5 24//6 42//6 
f 24//6 43//7 42//6 
f 24//6 25//7 43//7 
f 25//7 44//8 43//7 
f 25//7 26//8 44//8 
f 26//8 45//9 44//8 
f 26//8 27//9 45//9 
f 27//9 46//10 45//9 
f 27//9 28//10 46//10 
f 28//10 47//21 46//10 
f 28//10 29//11 47//21 
f 29//11 48//12 47//21 
f 29//11 30//12 48//12 
f 30//12 49//13 48//12 
f 30//12 31//13 49//13 
f 31//13 50//14 49//13 
f 31//13 32//14 50//14 
f 32//14 51//15 50//14 
f 32//14 33//15 51//15 
f 33//15 52//16 51//15 
f 33//15 34//16 52//16 
f 34//16 53//17 52//16 
f 34//16 35//17 53//17 
f 35//17 54//18 53//17 
f 35//17 36//18 54//18 
f 36//18 55//19 54//18 
f 36//18 37//19 55//19 
f 37//19 39//20 55//19 
f 37//19 21//2 39//20 
f 39//20 56//3 57//2 
f 39//20 38//3 56//3 
f 38//3 58//4 56//3 
f 38//3 40//4 58//4 
f 40//4 59//5 58//4 
f 40//4 41//5 59//5 
f 41//5 60//6 59//5 
f 41//5 42//6 60//6 
f 42//6 61//7 60//6 
f 42//6 43//7 61//7 
f 43//7 62//8 61//7 
f 43//7 44//8 62//8 
f 44//8 63//9 62//8 
f 44//8 45//9 63//9 
f 45//9 64//10 63//9 
f 45//9 46//10 64//10 
f 46//10 65//21 64//10 
f 46//10 47//21 65//21 
f 47//21 66//12 65//21 
f 47//21 48//12 66//12 
f 48//12 67//13 66//12 
f 48//12 49//13 67//13 
f 49//13 68//14 67//13 
f 49//13 50//14 68//14 
f 50//14 69//15 68//14 
f 50//14 51//15 69//15 
f 51//15 70//16 69//15 
f 51//15 52//16 70//16 
f 52//16 71//17 70//16 
f 52//16 53//17 71//17 
f 53//17 72//18 71//17 
f 53//17 54//18 72//18 
f 54//18 73//19 72//18 
f 54//18 55//19 73//19 
f 55//19 57//2 73//19 
f 55//19 39//20 57//2 
f 57//2 74//3 75//2 
f 57//2 56//3 74//3 
f 56//3 76//4 74//3 
f 56//3 58//4 76//4 
f 58//4 77//5 76//4 
f 58//4 59//5 77//5 
f 59//5 78//6 77//5 
f 59//5 60//6 78//6 
f 60//6 79//7 78//6 
f 60//6 61//7 79//7 
f 61//7 80//8 79//7 
f 61//7 62//8 80//8 
f 62//8 81//9 80//8 
f 62//8 63//9 81//9 
f 63//9 82//10 81//9 
f 63//9 64//10 82//10 
f 64//10 83//21 82//10 
f 64//10 65//21 83//21 
f 65//21 84//12 83//21 
f 65//21 66//12 84//12 
f 66//12 85//13 84//12 
f 66//12 67//13 85//13 
f 67//13 86//14 85//13 
f 67//13 68//14 86//14 
f 68//14 87//15 86//14 
f 68//14 69//15 87//15 
f 69//15 88//16 87//15 
f 69//15 70//16 88//16 
f 70//16 89//17 88//16 
f 70//16 71//17 89//17 
f 71//17 90//18 89//17 
f 71//17 72//18 90//18 
f 72//18 91//19 90//18 
f 72//18 73//19 91//19 
f 73//19 75//2 91//19 
f 73//19 57//2 75//2 
f 75//2 92//3 93//20 
f 75//2 74//3 92//3 
f 74//3 94//4 92//3 
f 74//3 76//4 94//4 
f 76//4 95//5 94//4 
f 76//4 77//5 95//5 
f 77//5 96//6 95//5 
f 77//5 78//6 96//6 
f 78//6 97//7 96//6 
f 78//6 79//7 97//7 
f 79//7 98//8 97//7 
f 79//7 80//8 98//8 
f 80//8 99//9 98//8 
f 80//8 81//9 99//9 
f 81//9 100//10 99//9 
f 81//9 82//10 100//10 
f 82//10 101//21 100//10 
f 82//10 83//21 101//21 
f 83//21 102//12 101//21 
f 83//21 84//12 102//12 
f 84//12 103//13 102//12 
f 84//12 85//13 103//13 
f 85//13 104//14 103//13 
f 85//13 86//14 104//14 
f 86//14 105//15 104//14 
f 86//14 87//15 105//15 
f 87//15 106//16 105//15 
f 87//15 88//16 106//16 
f 88//16 107//17 106//16 
f 88//16 89//17 107//17 
f 89//17 108//18 107//17 
f 89//17 90//18 108//18 
f 90//18 109//19 108//18 
f 90//18 91//19 109//19 
f 91//19 93//20 109//19 
f 91//19 75//2 93//20 
s 1
f 110//22 93//22 92//22 
f 110//22 92//22 94//22 
f 110//22 94//22 95//22 
f 110//22 95//22 96//22 
f 110//22 96//22 97//22 
f 110//22 97//22 98//22 
f 110//22 98//22 99//22 
f 110//22 99//22 100//22 
f 110//22 100//22 101//22 
f 110//22 101//22 102//22 
f 110//22 102//22 103//22 
f 110//22 103//22 104//22 
f 110//22 104//22 105//22 
f 110//22 105//22 106//22 
f 110//22 106//22 107//22 
f 110//22 107//22 108//22 
f 110//22 108//22 109//22 
f 110//22 109//22 93//22 
# 216 faces

