# 3ds Max Wavefront OBJ Exporter v0.97b - (c)2007 guruware
# 创建的文件:15.05.2017 04:21:32

mtllib 4.mtl

#
# object Plane001
#

v  -21931.531 -42.415 4860.282
v  -21931.531 -84.830 9720.564
v  -10965.766 -42.415 4860.282
v  -10965.766 -84.830 9720.564
v  0.000 -42.415 4860.282
v  0.000 -84.830 9720.564
v  10965.766 -42.415 4860.282
v  10965.766 -84.830 9720.564
v  21931.531 -42.415 4860.282
v  21931.531 -84.830 9720.564
v  -21931.531 0.000 0.000
v  -10965.766 0.000 0.000
v  0.000 0.000 0.000
v  10965.766 0.000 0.000
v  21931.531 0.000 0.000
v  -21931.531 42.415 -4860.282
v  -10965.766 42.415 -4860.282
v  0.000 42.415 -4860.282
v  10965.766 42.415 -4860.282
v  21931.531 42.415 -4860.282
v  -21931.531 84.830 -9720.564
v  -10965.766 84.830 -9720.564
v  0.000 84.830 -9720.564
v  10965.766 84.830 -9720.564
v  21931.531 84.830 -9720.564
# 25 vertices

vn 0.000 1.000 0.009
# 1 vertex normals

g Plane001
usemtl wire_255255255
s 1
f 1//1 2//1 3//1 
f 4//1 3//1 2//1 
f 3//1 4//1 5//1 
f 6//1 5//1 4//1 
f 5//1 6//1 7//1 
f 8//1 7//1 6//1 
f 7//1 8//1 9//1 
f 10//1 9//1 8//1 
f 11//1 1//1 12//1 
f 3//1 12//1 1//1 
f 12//1 3//1 13//1 
f 5//1 13//1 3//1 
f 13//1 5//1 14//1 
f 7//1 14//1 5//1 
f 14//1 7//1 15//1 
f 9//1 15//1 7//1 
f 16//1 11//1 17//1 
f 12//1 17//1 11//1 
f 17//1 12//1 18//1 
f 13//1 18//1 12//1 
f 18//1 13//1 19//1 
f 14//1 19//1 13//1 
f 19//1 14//1 20//1 
f 15//1 20//1 14//1 
f 21//1 16//1 22//1 
f 17//1 22//1 16//1 
f 22//1 17//1 23//1 
f 18//1 23//1 17//1 
f 23//1 18//1 24//1 
f 19//1 24//1 18//1 
f 24//1 19//1 25//1 
f 20//1 25//1 19//1 
# 32 faces

