# 3ds Max Wavefront OBJ Exporter v0.97b - (c)2007 guruware
# 创建的文件:15.05.2017 04:21:51

mtllib 6.mtl

#
# object Plane002
#

v  2054.422 -5721.580 2004.569
v  4108.845 -5739.508 4058.913
v  2054.422 -2869.754 2029.456
v  4108.844 -2887.681 4083.799
v  2054.422 -17.927 2054.343
v  4108.844 -35.855 4108.687
v  2054.422 2833.899 2079.230
v  4108.844 2815.971 4133.573
v  2054.422 5685.725 2104.117
v  4108.844 5667.798 4158.460
v  0.000 -5703.652 -49.774
v  0.000 -2851.826 -24.887
v  0.000 0.000 0.000
v  -0.000 2851.826 24.887
v  -0.000 5703.652 49.774
v  -2054.422 -5685.725 -2104.117
v  -2054.422 -2833.899 -2079.230
v  -2054.422 17.927 -2054.343
v  -2054.422 2869.754 -2029.456
v  -2054.422 5721.580 -2004.569
v  -4108.844 -5667.798 -4158.460
v  -4108.844 -2815.971 -4133.573
v  -4108.844 35.855 -4108.687
v  -4108.844 2887.681 -4083.799
v  -4108.845 5739.508 -4058.913
# 25 vertices

vn -0.707 -0.006 0.707
# 1 vertex normals

g Plane002
usemtl wire_115115115
s 1
f 1//1 2//1 3//1 
f 4//1 3//1 2//1 
f 3//1 4//1 5//1 
f 6//1 5//1 4//1 
f 5//1 6//1 7//1 
f 8//1 7//1 6//1 
f 7//1 8//1 9//1 
f 10//1 9//1 8//1 
f 11//1 1//1 12//1 
f 3//1 12//1 1//1 
f 12//1 3//1 13//1 
f 5//1 13//1 3//1 
f 13//1 5//1 14//1 
f 7//1 14//1 5//1 
f 14//1 7//1 15//1 
f 9//1 15//1 7//1 
f 16//1 11//1 17//1 
f 12//1 17//1 11//1 
f 17//1 12//1 18//1 
f 13//1 18//1 12//1 
f 18//1 13//1 19//1 
f 14//1 19//1 13//1 
f 19//1 14//1 20//1 
f 15//1 20//1 14//1 
f 21//1 16//1 22//1 
f 17//1 22//1 16//1 
f 22//1 17//1 23//1 
f 18//1 23//1 17//1 
f 23//1 18//1 24//1 
f 19//1 24//1 18//1 
f 24//1 19//1 25//1 
f 20//1 25//1 19//1 
# 32 faces

